# xmcd
#
# Track frame offsets:
#	150
#	18243
#	38314
#	52361
#	74913
#	88202
#	107633
#	128476
#	146894
#	165253
#
# Disc length: 2466 seconds
#
# Revision: 1
# Processed by: cddbd v1.5.2PL0 Copyright (c) Steve Scherf et al.
# Submitted via: audiograbber 1.81.03
#
DISCID=8809a00a
DTITLE=J.D.`Silver - Love Is Not Forever
DYEAR=2005
DGENRE=Blues
TTITLE0=Love Is Not Forever
TTITLE1=Blue Skies And Days Past
TTITLE2=Right From The Start
TTITLE3=Love Dances
TTITLE4=Strawberry Man
TTITLE5=Tell Me
TTITLE6=Tell The World To Understand
TTITLE7=Garden Of Dreams
TTITLE8=Engine 38
TTITLE9=Love Is Not Forever Live
EXTD=
EXTT0=
EXTT1=
EXTT2=
EXTT3=
EXTT4=
EXTT5=
EXTT6=
EXTT7=
EXTT8=
EXTT9=
PLAYORDER=
